<svg width="512" height="512" viewBox="0 0 512 512" fill="#10a37f" xmlns="http://www.w3.org/2000/svg">
  <path d="M184 0C214.9 0 240 25.07 240 56V456C240 486.9 214.9 512 184 512H56C25.07 512 0 486.9 0 456V56C0 25.07 25.07 0 56 0H184zM184 56H56V456H184V56zM336 0H464C494.9 0 520 25.07 520 56V456C520 486.9 494.9 512 464 512H336C305.1 512 280 486.9 280 456V56C280 25.07 305.1 0 336 0zM336 56V456H464V56H336zM208 160H48V96H208V160zM48 224H208V288H48V224zM208 352H48V416H208V352zM304 160H464V96H304V160zM464 224H304V288H464V224zM304 352H464V416H304V352z"/>
</svg> 